%FSLAX25Y25*%
%MOIN*%
G70*
G01*
G75*
G04 Layer_Physical_Order=2*
G04 Layer_Color=16711680*
%ADD10R,0.04724X0.05512*%
%ADD11R,0.21260X0.11417*%
%ADD12R,0.05512X0.04724*%
%ADD13C,0.01000*%
%ADD14R,0.06200X0.06200*%
%ADD15C,0.06200*%
%ADD16R,0.06200X0.06200*%
%ADD17C,0.05906*%
%ADD18R,0.05906X0.05906*%
%ADD19C,0.03000*%
%ADD20C,0.05000*%
%ADD21R,0.01417X0.04685*%
%ADD22R,0.05512X0.04331*%
%ADD23R,0.04331X0.05512*%
%ADD24R,0.09843X0.06693*%
%ADD25R,0.12992X0.05512*%
%ADD26R,0.07520X0.02402*%
G04:AMPARAMS|DCode=27|XSize=122.05mil|YSize=94.88mil|CornerRadius=9.49mil|HoleSize=0mil|Usage=FLASHONLY|Rotation=270.000|XOffset=0mil|YOffset=0mil|HoleType=Round|Shape=RoundedRectangle|*
%AMROUNDEDRECTD27*
21,1,0.12205,0.07591,0,0,270.0*
21,1,0.10307,0.09488,0,0,270.0*
1,1,0.01898,-0.03795,-0.05154*
1,1,0.01898,-0.03795,0.05154*
1,1,0.01898,0.03795,0.05154*
1,1,0.01898,0.03795,-0.05154*
%
%ADD27ROUNDEDRECTD27*%
%ADD28R,0.04724X0.05512*%
%ADD29R,0.04331X0.06693*%
D13*
X303818Y214500D02*
X313500D01*
X222841Y209154D02*
X298472D01*
X217495Y214500D02*
X222841Y209154D01*
X298472D02*
X303818Y214500D01*
X214000D02*
X217495D01*
X475500Y276453D02*
X483000D01*
X231500Y245354D02*
X238646Y252500D01*
X224000Y245500D02*
X231354D01*
X522531Y232031D02*
Y244114D01*
X509500Y219000D02*
X522531Y232031D01*
X491272Y236272D02*
X513809D01*
X477986Y222986D02*
X491272Y236272D01*
X490272Y238272D02*
X512981D01*
X468328Y216328D02*
X490272Y238272D01*
X488772Y240272D02*
X511066D01*
X465500Y217000D02*
X488772Y240272D01*
X464000Y217000D02*
X465500D01*
X459439Y209900D02*
X467221D01*
X450239Y219100D02*
X459439Y209900D01*
X488100Y225097D02*
X497206Y234203D01*
X488100Y212595D02*
Y225097D01*
X431500Y252500D02*
X499115D01*
X426417Y247417D02*
X431500Y252500D01*
X429100Y219100D02*
X450239D01*
X426417Y216417D02*
X429100Y219100D01*
X420600Y207900D02*
X473500D01*
X408500Y220000D02*
X420600Y207900D01*
X391000Y220000D02*
X408500D01*
X387833Y216833D02*
X391000Y220000D01*
X394500Y254500D02*
X500500D01*
X387833Y247833D02*
X394500Y254500D01*
X384600Y205900D02*
X481500D01*
X370750Y219750D02*
X384600Y205900D01*
X231500Y235020D02*
Y245354D01*
Y235020D02*
X239500Y227020D01*
X498273Y297000D02*
X522531Y272742D01*
Y267500D02*
Y272742D01*
X258000Y243500D02*
Y250500D01*
Y248126D02*
Y250500D01*
X257874Y248000D02*
X258000Y248126D01*
X257874Y248000D02*
X258000Y250500D01*
X265547D01*
X504618Y244114D02*
Y246997D01*
X499115Y252500D02*
X504618Y246997D01*
X500500Y254500D02*
X507177Y247823D01*
Y244114D02*
Y247823D01*
X346500Y245500D02*
X357500Y256500D01*
X509736Y244114D02*
Y248264D01*
X501500Y256500D02*
X509736Y248264D01*
X357500Y256500D02*
X501500D01*
X511066Y240272D02*
X512295Y241501D01*
Y244114D01*
X514854Y240146D02*
Y244114D01*
X512981Y238272D02*
X514854Y240146D01*
X468328Y211007D02*
Y216328D01*
X467221Y209900D02*
X468328Y211007D01*
X517413Y239876D02*
Y244114D01*
X513809Y236272D02*
X517413Y239876D01*
X478100Y212595D02*
Y222872D01*
X473405Y207900D02*
X478100Y212595D01*
X519972Y239528D02*
Y244114D01*
X514716Y234272D02*
X519972Y239528D01*
X497272Y234272D02*
X514716D01*
X481405Y205900D02*
X488100Y212595D01*
X352000Y220000D02*
X370845D01*
X346500Y214500D02*
X352000Y220000D01*
X501658Y261658D02*
X504618Y264617D01*
Y267500D01*
X507177Y263677D02*
Y267500D01*
X503158Y259658D02*
X507177Y263677D01*
X466000Y281500D02*
X482047D01*
X509736Y267500D02*
Y270113D01*
X512295Y267500D02*
Y271295D01*
X514854Y267500D02*
Y271564D01*
X517413Y267500D02*
Y271834D01*
X443843Y263657D02*
X499500D01*
X424250Y273250D02*
X435843Y261658D01*
X501658D01*
X414250Y273250D02*
X427843Y259658D01*
X503158D01*
X407750Y273250D02*
X411547Y277047D01*
Y286844D01*
X493005D01*
X509736Y270113D01*
X401547Y286844D02*
X403703Y289000D01*
X494590D01*
X512295Y271295D01*
X397750Y273250D02*
X401547Y277047D01*
Y286844D01*
X391547D02*
X395703Y291000D01*
X495419D01*
X514854Y271564D01*
X387750Y273250D02*
X391547Y277047D01*
Y286844D01*
X381547D02*
X387703Y293000D01*
X496247D01*
X517413Y271834D01*
X377750Y273250D02*
X381547Y277047D01*
Y286844D01*
X519972Y267500D02*
Y272472D01*
X497445Y295000D02*
X519972Y272472D01*
X371547Y277047D02*
Y283344D01*
X383203Y295000D02*
X497445D01*
X371547Y283344D02*
X383203Y295000D01*
X366000Y271500D02*
X371547Y277047D01*
X361547Y269656D02*
Y283344D01*
Y269656D02*
X364156Y267047D01*
X407844D01*
X414124Y275953D02*
X457844D01*
X462297Y271500D01*
X375203Y297000D02*
X498273D01*
X361547Y283344D02*
X375203Y297000D01*
X462297Y271500D02*
X466000D01*
X407844Y267047D02*
X411500Y270703D01*
Y273328D01*
X414124Y275953D01*
X303067Y240480D02*
X304547Y239000D01*
X313000Y244110D02*
X313110Y244000D01*
X329043Y214000D02*
X335000Y219957D01*
Y229000D01*
X313500Y214500D02*
X321457D01*
X258500D02*
X266457D01*
X251815D02*
X258500D01*
X274043Y215469D02*
X275969D01*
X280000Y219500D01*
Y228500D01*
X248067Y239980D02*
X249547Y238500D01*
X315500Y250500D02*
X320047D01*
X320547Y250000D01*
Y248000D02*
Y250000D01*
X313000Y250594D02*
X313649Y249946D01*
Y248649D02*
Y249946D01*
X313000Y244110D02*
Y250594D01*
X313649Y248649D02*
X315500Y250500D01*
X239500Y239980D02*
X248067D01*
X249547Y238500D02*
X258110D01*
X294500Y240480D02*
X303067D01*
X304547Y239000D02*
X313110D01*
X294500Y227520D02*
X295685Y226335D01*
Y214000D02*
Y226335D01*
X307453Y234000D02*
X313110D01*
X300972Y227520D02*
X305500Y232047D01*
X307453Y234000D01*
X327457Y222500D02*
Y232543D01*
X313110Y234000D02*
X320110D01*
X271000Y250000D02*
X277500Y243500D01*
X326453Y248000D02*
X327226Y248774D01*
X331250Y244750D01*
X335750D01*
X252453Y233500D02*
X258110D01*
X245972Y227020D02*
X250500Y231547D01*
X252453Y233500D01*
X240685Y214000D02*
Y225835D01*
X272000Y222457D02*
Y232500D01*
X258110Y233500D02*
X265110D01*
X238646Y252500D02*
X239626D01*
X286500Y235520D02*
X294500Y227520D01*
X286500Y235520D02*
Y248000D01*
X291000Y252500D01*
X499500Y263657D02*
Y267500D01*
X436000Y271500D02*
X443843Y263657D01*
X434250Y273250D02*
X436000Y271500D01*
X463500Y245500D02*
X466995D01*
X471595Y240900D01*
X486400D01*
X489614Y244114D01*
X499500D01*
X473500Y245500D02*
X476995D01*
X481595Y250100D01*
X498687D01*
X502059Y244114D02*
Y246728D01*
X498687Y250100D02*
X502059Y246728D01*
X466157Y271342D02*
X502059D01*
Y267500D02*
Y271342D01*
D14*
X214000Y245500D02*
D03*
Y214500D02*
D03*
X346500Y245500D02*
D03*
Y214500D02*
D03*
X385500Y245500D02*
D03*
Y214500D02*
D03*
X424500Y245500D02*
D03*
Y214500D02*
D03*
X463500Y245500D02*
D03*
Y214500D02*
D03*
D15*
X224000Y245500D02*
D03*
Y214500D02*
D03*
X507500Y219000D02*
D03*
X366500Y245500D02*
D03*
X356500D02*
D03*
X366500Y214500D02*
D03*
X356500D02*
D03*
X405500Y245500D02*
D03*
X395500D02*
D03*
X405500Y214500D02*
D03*
X395500D02*
D03*
X444500Y245500D02*
D03*
X434500D02*
D03*
X444500Y214500D02*
D03*
X434500D02*
D03*
X483500Y245500D02*
D03*
X473500D02*
D03*
X483500Y214500D02*
D03*
X473500D02*
D03*
D16*
X507500Y209000D02*
D03*
D17*
X336000Y281500D02*
D03*
Y271500D02*
D03*
X346000Y281500D02*
D03*
Y271500D02*
D03*
X356000Y281500D02*
D03*
Y271500D02*
D03*
X366000Y281500D02*
D03*
Y271500D02*
D03*
X376000Y281500D02*
D03*
Y271500D02*
D03*
X386000Y281500D02*
D03*
Y271500D02*
D03*
X396000Y281500D02*
D03*
Y271500D02*
D03*
X406000Y281500D02*
D03*
Y271500D02*
D03*
X416000Y281500D02*
D03*
Y271500D02*
D03*
X426000Y281500D02*
D03*
Y271500D02*
D03*
X436000Y281500D02*
D03*
Y271500D02*
D03*
X446000Y281500D02*
D03*
Y271500D02*
D03*
X456000Y281500D02*
D03*
Y271500D02*
D03*
X466000Y281500D02*
D03*
D18*
Y271500D02*
D03*
D19*
X321110Y240000D02*
D03*
Y233000D02*
D03*
Y236500D02*
D03*
X327000Y240000D02*
D03*
Y236500D02*
D03*
X324055Y234512D02*
D03*
X327000Y233000D02*
D03*
X324055Y238094D02*
D03*
X266110Y239500D02*
D03*
Y232500D02*
D03*
Y236000D02*
D03*
X272000Y239500D02*
D03*
Y236000D02*
D03*
X269055Y234012D02*
D03*
X272000Y232500D02*
D03*
X269055Y237594D02*
D03*
D20*
X483000Y276000D02*
D03*
X313000Y250594D02*
D03*
X258500Y214500D02*
D03*
X258000Y250500D02*
D03*
X313500Y214500D02*
D03*
X294500Y242500D02*
D03*
X239500Y242000D02*
D03*
D21*
X522531Y244114D02*
D03*
X519972D02*
D03*
X517413D02*
D03*
X514854D02*
D03*
X512295D02*
D03*
X509736D02*
D03*
X504618D02*
D03*
X507177D02*
D03*
X502059D02*
D03*
X499500D02*
D03*
Y267500D02*
D03*
X502059D02*
D03*
X507177D02*
D03*
X504618D02*
D03*
X509736D02*
D03*
X512295D02*
D03*
X514854D02*
D03*
X517413D02*
D03*
X519972D02*
D03*
X522531D02*
D03*
D22*
X483000Y276547D02*
D03*
Y282453D02*
D03*
X475500Y276453D02*
D03*
Y270547D02*
D03*
X305500Y232047D02*
D03*
Y237953D02*
D03*
X250500Y231547D02*
D03*
Y237453D02*
D03*
D23*
X326453Y250000D02*
D03*
X320547D02*
D03*
X271453D02*
D03*
X265547D02*
D03*
D24*
X310374Y252500D02*
D03*
X294626D02*
D03*
X255374D02*
D03*
X239626D02*
D03*
D25*
X294500Y227520D02*
D03*
Y242480D02*
D03*
X239500Y227020D02*
D03*
Y241980D02*
D03*
D26*
X335000Y244000D02*
D03*
Y239000D02*
D03*
Y234000D02*
D03*
Y229000D02*
D03*
X313110Y244000D02*
D03*
Y239000D02*
D03*
Y234000D02*
D03*
Y229000D02*
D03*
X280000Y243500D02*
D03*
Y238500D02*
D03*
Y233500D02*
D03*
Y228500D02*
D03*
X258110Y243500D02*
D03*
Y238500D02*
D03*
Y233500D02*
D03*
Y228500D02*
D03*
D27*
X324055Y236500D02*
D03*
X269055Y236000D02*
D03*
D28*
X321957Y214000D02*
D03*
X329043D02*
D03*
X334543Y222500D02*
D03*
X327457D02*
D03*
X279543Y222000D02*
D03*
X272457D02*
D03*
X266957Y214000D02*
D03*
X274043D02*
D03*
D29*
X306315D02*
D03*
X295685D02*
D03*
X251315D02*
D03*
X240685D02*
D03*
M02*
