%FSLAX25Y25*%
%MOIN*%
G70*
G01*
G75*
%ADD10R,0.04724X0.05512*%
%ADD11R,0.21260X0.11417*%
%ADD12R,0.05512X0.04724*%
%ADD13C,0.01000*%
%ADD14R,0.06200X0.06200*%
%ADD15C,0.06200*%
%ADD16R,0.06200X0.06200*%
%ADD17C,0.05906*%
%ADD18R,0.05906X0.05906*%
%ADD19C,0.03000*%
%ADD20C,0.05000*%
%ADD21R,0.01417X0.04685*%
%ADD22R,0.05512X0.04331*%
%ADD23R,0.04331X0.05512*%
%ADD24R,0.09843X0.06693*%
%ADD25R,0.12992X0.05512*%
%ADD26R,0.07520X0.02402*%
G04:AMPARAMS|DCode=27|XSize=122.05mil|YSize=94.88mil|CornerRadius=9.49mil|HoleSize=0mil|Usage=FLASHONLY|Rotation=270.000|XOffset=0mil|YOffset=0mil|HoleType=Round|Shape=RoundedRectangle|*
%AMROUNDEDRECTD27*
21,1,0.12205,0.07591,0,0,270.0*
21,1,0.10307,0.09488,0,0,270.0*
1,1,0.01898,-0.03795,-0.05154*
1,1,0.01898,-0.03795,0.05154*
1,1,0.01898,0.03795,0.05154*
1,1,0.01898,0.03795,-0.05154*
%
%ADD27ROUNDEDRECTD27*%
%ADD28R,0.04724X0.05512*%
%ADD29R,0.04331X0.06693*%
%ADD30C,0.00800*%
%ADD31C,0.00787*%
%ADD32C,0.00500*%
%ADD33R,0.05524X0.06312*%
%ADD34R,0.22060X0.12217*%
%ADD35R,0.06312X0.05524*%
%ADD36R,0.07000X0.07000*%
%ADD37C,0.07000*%
%ADD38R,0.07000X0.07000*%
%ADD39C,0.06706*%
%ADD40R,0.06706X0.06706*%
%ADD41C,0.03800*%
%ADD42C,0.05800*%
%ADD43R,0.02217X0.05485*%
%ADD44R,0.06312X0.05131*%
%ADD45R,0.05131X0.06312*%
%ADD46R,0.10642X0.07493*%
%ADD47R,0.13792X0.06312*%
%ADD48R,0.08320X0.03202*%
G04:AMPARAMS|DCode=49|XSize=130.05mil|YSize=102.88mil|CornerRadius=13.49mil|HoleSize=0mil|Usage=FLASHONLY|Rotation=270.000|XOffset=0mil|YOffset=0mil|HoleType=Round|Shape=RoundedRectangle|*
%AMROUNDEDRECTD49*
21,1,0.13005,0.07591,0,0,270.0*
21,1,0.10307,0.10288,0,0,270.0*
1,1,0.02698,-0.03795,-0.05154*
1,1,0.02698,-0.03795,0.05154*
1,1,0.02698,0.03795,0.05154*
1,1,0.02698,0.03795,-0.05154*
%
%ADD49ROUNDEDRECTD49*%
%ADD50R,0.05524X0.06312*%
%ADD51R,0.05131X0.07493*%
%ADD52C,0.00984*%
%ADD53C,0.00667*%
D32*
X212030Y245500D02*
X215970D01*
X214000Y243530D02*
Y247470D01*
X222030Y245500D02*
X225970D01*
X224000Y243530D02*
Y247470D01*
X212030Y214500D02*
X215970D01*
X214000Y212530D02*
Y216470D01*
X222030Y214500D02*
X225970D01*
X224000Y212530D02*
Y216470D01*
X505530Y209000D02*
X509470D01*
X507500Y207030D02*
Y210970D01*
X505530Y219000D02*
X509470D01*
X507500Y217030D02*
Y220970D01*
X334228Y281500D02*
X337772D01*
X336000Y279728D02*
Y283272D01*
X334228Y271500D02*
X337772D01*
X336000Y269728D02*
Y273272D01*
X344228Y281500D02*
X347772D01*
X346000Y279728D02*
Y283272D01*
X344228Y271500D02*
X347772D01*
X346000Y269728D02*
Y273272D01*
X354228Y281500D02*
X357772D01*
X356000Y279728D02*
Y283272D01*
X354228Y271500D02*
X357772D01*
X356000Y269728D02*
Y273272D01*
X364228Y281500D02*
X367772D01*
X366000Y279728D02*
Y283272D01*
X364228Y271500D02*
X367772D01*
X366000Y269728D02*
Y273272D01*
X374228Y281500D02*
X377772D01*
X376000Y279728D02*
Y283272D01*
X374228Y271500D02*
X377772D01*
X376000Y269728D02*
Y273272D01*
X384228Y281500D02*
X387772D01*
X386000Y279728D02*
Y283272D01*
X384228Y271500D02*
X387772D01*
X386000Y269728D02*
Y273272D01*
X394228Y281500D02*
X397772D01*
X396000Y279728D02*
Y283272D01*
X394228Y271500D02*
X397772D01*
X396000Y269728D02*
Y273272D01*
X404228Y281500D02*
X407772D01*
X406000Y279728D02*
Y283272D01*
X404228Y271500D02*
X407772D01*
X406000Y269728D02*
Y273272D01*
X414228Y281500D02*
X417772D01*
X416000Y279728D02*
Y283272D01*
X414228Y271500D02*
X417772D01*
X416000Y269728D02*
Y273272D01*
X424228Y281500D02*
X427772D01*
X426000Y279728D02*
Y283272D01*
X424228Y271500D02*
X427772D01*
X426000Y269728D02*
Y273272D01*
X434228Y281500D02*
X437772D01*
X436000Y279728D02*
Y283272D01*
X434228Y271500D02*
X437772D01*
X436000Y269728D02*
Y273272D01*
X444228Y281500D02*
X447772D01*
X446000Y279728D02*
Y283272D01*
X444228Y271500D02*
X447772D01*
X446000Y269728D02*
Y273272D01*
X454228Y281500D02*
X457772D01*
X456000Y279728D02*
Y283272D01*
X454228Y271500D02*
X457772D01*
X456000Y269728D02*
Y273272D01*
X464228Y281500D02*
X467772D01*
X466000Y279728D02*
Y283272D01*
X464228Y271500D02*
X467772D01*
X466000Y269728D02*
Y273272D01*
X364530Y245500D02*
X368470D01*
X366500Y243530D02*
Y247470D01*
X354530Y245500D02*
X358470D01*
X356500Y243530D02*
Y247470D01*
X344530Y245500D02*
X348470D01*
X346500Y243530D02*
Y247470D01*
X364530Y214500D02*
X368470D01*
X366500Y212530D02*
Y216470D01*
X354530Y214500D02*
X358470D01*
X356500Y212530D02*
Y216470D01*
X344530Y214500D02*
X348470D01*
X346500Y212530D02*
Y216470D01*
X403530Y245500D02*
X407470D01*
X405500Y243530D02*
Y247470D01*
X393530Y245500D02*
X397470D01*
X395500Y243530D02*
Y247470D01*
X383530Y245500D02*
X387470D01*
X385500Y243530D02*
Y247470D01*
X403530Y214500D02*
X407470D01*
X405500Y212530D02*
Y216470D01*
X393530Y214500D02*
X397470D01*
X395500Y212530D02*
Y216470D01*
X383530Y214500D02*
X387470D01*
X385500Y212530D02*
Y216470D01*
X442530Y245500D02*
X446470D01*
X444500Y243530D02*
Y247470D01*
X432530Y245500D02*
X436470D01*
X434500Y243530D02*
Y247470D01*
X422530Y245500D02*
X426470D01*
X424500Y243530D02*
Y247470D01*
X442530Y214500D02*
X446470D01*
X444500Y212530D02*
Y216470D01*
X432530Y214500D02*
X436470D01*
X434500Y212530D02*
Y216470D01*
X422530Y214500D02*
X426470D01*
X424500Y212530D02*
Y216470D01*
X481530Y245500D02*
X485470D01*
X483500Y243530D02*
Y247470D01*
X471530Y245500D02*
X475470D01*
X473500Y243530D02*
Y247470D01*
X461530Y245500D02*
X465470D01*
X463500Y243530D02*
Y247470D01*
X481530Y214500D02*
X485470D01*
X483500Y212530D02*
Y216470D01*
X471530Y214500D02*
X475470D01*
X473500Y212530D02*
Y216470D01*
X461530Y214500D02*
X465470D01*
X463500Y212530D02*
Y216470D01*
X320360Y240000D02*
X321860D01*
X321110Y239250D02*
Y240750D01*
X320360Y233000D02*
X321860D01*
X321110Y232250D02*
Y233750D01*
X320360Y236500D02*
X321860D01*
X321110Y235750D02*
Y237250D01*
X326250Y240000D02*
X327750D01*
X327000Y239250D02*
Y240750D01*
X326250Y236500D02*
X327750D01*
X327000Y235750D02*
Y237250D01*
X323305Y234512D02*
X324805D01*
X324055Y233762D02*
Y235262D01*
X326250Y233000D02*
X327750D01*
X327000Y232250D02*
Y233750D01*
X323305Y238094D02*
X324805D01*
X324055Y237344D02*
Y238844D01*
X265360Y239500D02*
X266860D01*
X266110Y238750D02*
Y240250D01*
X265360Y232500D02*
X266860D01*
X266110Y231750D02*
Y233250D01*
X265360Y236000D02*
X266860D01*
X266110Y235250D02*
Y236750D01*
X271250Y239500D02*
X272750D01*
X272000Y238750D02*
Y240250D01*
X271250Y236000D02*
X272750D01*
X272000Y235250D02*
Y236750D01*
X268305Y234012D02*
X269805D01*
X269055Y233262D02*
Y234762D01*
X271250Y232500D02*
X272750D01*
X272000Y231750D02*
Y233250D01*
X268305Y237594D02*
X269805D01*
X269055Y236844D02*
Y238344D01*
X481600Y276000D02*
X484400D01*
X483000Y274600D02*
Y277400D01*
X311600Y250594D02*
X314400D01*
X313000Y249194D02*
Y251994D01*
X257100Y214500D02*
X259900D01*
X258500Y213100D02*
Y215900D01*
X256600Y250500D02*
X259400D01*
X258000Y249100D02*
Y251900D01*
X312100Y214500D02*
X314900D01*
X313500Y213100D02*
Y215900D01*
X293100Y242500D02*
X295900D01*
X294500Y241100D02*
Y243900D01*
X238100Y242000D02*
X240900D01*
X239500Y240600D02*
Y243400D01*
M02*
