%FSLAX25Y25*%
%MOIN*%
G70*
G01*
G75*
G04 Layer_Physical_Order=1*
G04 Layer_Color=255*
%ADD10R,0.04724X0.05512*%
%ADD11R,0.21260X0.11417*%
%ADD12R,0.05512X0.04724*%
%ADD13C,0.01000*%
%ADD14R,0.06200X0.06200*%
%ADD15C,0.06200*%
%ADD16R,0.06200X0.06200*%
%ADD17C,0.05906*%
%ADD18R,0.05906X0.05906*%
%ADD19C,0.03000*%
%ADD20C,0.05000*%
D10*
X517406Y255500D02*
D03*
X505594D02*
D03*
X517406Y238500D02*
D03*
X505594D02*
D03*
D11*
X258000Y214406D02*
D03*
Y252594D02*
D03*
X313000Y214406D02*
D03*
Y252594D02*
D03*
D12*
X496500Y255457D02*
D03*
Y262543D02*
D03*
Y238543D02*
D03*
Y231457D02*
D03*
D13*
X481505Y206000D02*
X488100Y212595D01*
X326500Y206000D02*
X481505D01*
X318094Y214406D02*
X326500Y206000D01*
X239000Y204000D02*
X507500D01*
X274500Y288500D02*
X479500D01*
X245000Y259000D02*
X274500Y288500D01*
X245000Y227906D02*
Y259000D01*
X313000Y214406D02*
X318094D01*
X258000D02*
X259000D01*
X222095Y250100D02*
X244600D01*
X217495Y245500D02*
X222095Y250100D01*
X214000Y245500D02*
X217495D01*
X483500D02*
Y276500D01*
X507500Y217000D02*
X517406Y226906D01*
X444333Y209667D02*
Y245500D01*
X405667Y214333D02*
Y245500D01*
X336000Y236500D02*
Y271500D01*
Y236500D02*
X338000D01*
X327000D02*
X336000D01*
X224000Y214500D02*
Y245500D01*
X496500Y262543D02*
Y271500D01*
X479500Y288500D02*
X496500Y271500D01*
X245000Y227906D02*
X258000Y214906D01*
X338000Y210000D02*
Y236500D01*
Y209500D02*
X366500D01*
X488100Y223057D02*
X496500Y231457D01*
X488100Y212595D02*
Y223057D01*
X483000Y276000D02*
X483500Y276500D01*
Y245500D02*
X517406D01*
X434333Y214500D02*
Y251381D01*
X466000Y281500D02*
X473500Y274000D01*
Y251547D02*
Y274000D01*
X336000Y271500D02*
Y281500D01*
X478500Y209500D02*
X483500Y214500D01*
X405500Y209500D02*
X478500D01*
X366500D02*
X405500D01*
Y214500D01*
X366500Y209500D02*
Y214500D01*
X473500Y245500D02*
Y251547D01*
X395500D02*
X473500D01*
X362547D02*
X395500D01*
Y245500D02*
Y251547D01*
Y214500D02*
Y245500D01*
X507500Y204000D02*
Y209000D01*
X473500Y214500D02*
Y245500D01*
X356500Y214500D02*
Y245500D01*
X483500Y214500D02*
Y245500D01*
X366500Y214500D02*
Y245500D01*
X496543Y255500D02*
X505594D01*
X496543Y238500D02*
X505594D01*
X356500Y245500D02*
X362547Y251547D01*
X517406Y226906D02*
Y238500D01*
X294500Y204500D02*
Y242500D01*
X239000Y204500D02*
Y240500D01*
X240000Y241500D01*
X517406Y238500D02*
Y245500D01*
Y253500D01*
X272000Y239500D02*
X280500D01*
X288000Y247000D01*
X298000D01*
X305000Y240000D01*
X321110D01*
D14*
X214000Y245500D02*
D03*
Y214500D02*
D03*
X346500Y245500D02*
D03*
Y214500D02*
D03*
X385500Y245500D02*
D03*
Y214500D02*
D03*
X424500Y245500D02*
D03*
Y214500D02*
D03*
X463500Y245500D02*
D03*
Y214500D02*
D03*
D15*
X224000Y245500D02*
D03*
Y214500D02*
D03*
X507500Y219000D02*
D03*
X366500Y245500D02*
D03*
X356500D02*
D03*
X366500Y214500D02*
D03*
X356500D02*
D03*
X405500Y245500D02*
D03*
X395500D02*
D03*
X405500Y214500D02*
D03*
X395500D02*
D03*
X444500Y245500D02*
D03*
X434500D02*
D03*
X444500Y214500D02*
D03*
X434500D02*
D03*
X483500Y245500D02*
D03*
X473500D02*
D03*
X483500Y214500D02*
D03*
X473500D02*
D03*
D16*
X507500Y209000D02*
D03*
D17*
X336000Y281500D02*
D03*
Y271500D02*
D03*
X346000Y281500D02*
D03*
Y271500D02*
D03*
X356000Y281500D02*
D03*
Y271500D02*
D03*
X366000Y281500D02*
D03*
Y271500D02*
D03*
X376000Y281500D02*
D03*
Y271500D02*
D03*
X386000Y281500D02*
D03*
Y271500D02*
D03*
X396000Y281500D02*
D03*
Y271500D02*
D03*
X406000Y281500D02*
D03*
Y271500D02*
D03*
X416000Y281500D02*
D03*
Y271500D02*
D03*
X426000Y281500D02*
D03*
Y271500D02*
D03*
X436000Y281500D02*
D03*
Y271500D02*
D03*
X446000Y281500D02*
D03*
Y271500D02*
D03*
X456000Y281500D02*
D03*
Y271500D02*
D03*
X466000Y281500D02*
D03*
D18*
Y271500D02*
D03*
D19*
X321110Y240000D02*
D03*
Y233000D02*
D03*
Y236500D02*
D03*
X327000Y240000D02*
D03*
Y236500D02*
D03*
X324055Y234512D02*
D03*
X327000Y233000D02*
D03*
X324055Y238094D02*
D03*
X266110Y239500D02*
D03*
Y232500D02*
D03*
Y236000D02*
D03*
X272000Y239500D02*
D03*
Y236000D02*
D03*
X269055Y234012D02*
D03*
X272000Y232500D02*
D03*
X269055Y237594D02*
D03*
D20*
X483000Y276000D02*
D03*
X313000Y250594D02*
D03*
X258500Y214500D02*
D03*
X258000Y250500D02*
D03*
X313500Y214500D02*
D03*
X294500Y242500D02*
D03*
X239500Y242000D02*
D03*
M02*
